<svg width="40" height="40" viewBox="0 0 40 40" fill="none" xmlns="http://www.w3.org/2000/svg">
<path d="M25.0003 33.3332H15.0003C11.667 33.3332 8.33366 31.9998 8.33366 26.6665V16.6665C8.33366 11.3332 11.667 9.99984 15.0003 9.99984H25.0003C28.3337 9.99984 31.667 11.3332 31.667 16.6665V26.6665C31.667 31.9998 28.3337 33.3332 25.0003 33.3332Z" stroke="#2176FF" stroke-width="2" stroke-linecap="round" stroke-linejoin="round"/>
<path d="M23.3337 22.5C23.3337 24.3417 21.842 25.8333 20.0003 25.8333C18.1587 25.8333 16.667 24.3417 16.667 22.5C16.667 20.6583 18.1587 19.1667 20.0003 19.1667C21.842 19.1667 23.3337 20.6583 23.3337 22.5Z" stroke="#2176FF" stroke-width="2" stroke-linecap="round" stroke-linejoin="round"/>
<path d="M12.5 10V8.33333C12.5 7.44167 13.2083 6.66667 14.0833 6.66667H17.5" stroke="#2176FF" stroke-width="2" stroke-linecap="round" stroke-linejoin="round"/>
<path d="M27.5 10V8.33333C27.5 7.44167 26.7917 6.66667 25.9167 6.66667H22.5" stroke="#2176FF" stroke-width="2" stroke-linecap="round" stroke-linejoin="round"/>
</svg>