<svg width="100" height="100" viewBox="0 0 100 100" fill="none" xmlns="http://www.w3.org/2000/svg">
<g clip-path="url(#clip0_401_2)">
<path d="M83.4375 88.2383H16.3594C12.0312 88.2383 8.59375 84.8008 8.59375 80.4727V42.4883C8.59375 39.8164 10.7578 37.6523 13.4297 37.6523H86.3281C88.9922 37.6523 91.1875 39.8164 91.1875 42.4883V80.4727C91.1875 84.8008 87.75 88.2383 83.4375 88.2383Z" fill="#D22F27"/>
<path d="M91.1875 49.207H8.59375V56.2383H91.1875V49.207Z" fill="white"/>
<path d="M86.5391 37.6523H13.2539L20.6719 11.7617H79.1211L86.5391 37.6523Z" fill="white"/>
<path d="M26.2344 11.7617H22.9609V37.6523H26.2344V11.7617Z" fill="#FFC7BD"/>
<path d="M36.1016 11.7617H32.8281V37.6523H36.1016V11.7617Z" fill="#FFC7BD"/>
<path d="M45.9688 11.7617H42.6953V37.6523H45.9688V11.7617Z" fill="#FFC7BD"/>
<path d="M55.8359 11.7617H52.5625V37.6523H55.8359V11.7617Z" fill="#FFC7BD"/>
<path d="M65.7031 11.7617H62.4297V37.6523H65.7031V11.7617Z" fill="#FFC7BD"/>
<path d="M75.5703 11.7617H72.2969V37.6523H75.5703V11.7617Z" fill="#FFC7BD"/>
<g>
<path d="M49.8984 46.8125C47.4375 46.8125 45.4297 44.8047 45.4297 42.3438C45.4297 39.8828 47.4375 37.875 49.8984 37.875C52.3594 37.875 54.3672 39.8828 54.3672 42.3438C54.3672 44.8047 52.3594 46.8125 49.8984 46.8125Z" fill="#F4B22B"/>
<path d="M50 44.1602C50.7188 44.1602 51.2734 43.6055 51.2734 42.8867C51.2734 42.168 50.7188 41.6133 50 41.6133C49.2812 41.6133 48.7266 42.168 48.7266 42.8867C48.7266 43.6055 49.2812 44.1602 50 44.1602Z" fill="#FFEEC8"/>
</g>
<g>
<path d="M49.8984 35.3359C43.5312 35.3359 38.3828 30.1875 38.3828 23.8203C38.3828 17.4531 43.5312 12.3047 49.8984 12.3047C56.2656 12.3047 61.4141 17.4531 61.4141 23.8203C61.4141 30.1875 56.2656 35.3359 49.8984 35.3359Z" fill="#F4B22B"/>
<path d="M49.8984 31.6211C54.2109 31.6211 57.6953 28.1367 57.6953 23.8242C57.6953 19.5117 54.2109 16.0273 49.8984 16.0273C45.5859 16.0273 42.1016 19.5117 42.1016 23.8242C42.1016 28.1367 45.5859 31.6211 49.8984 31.6211Z" fill="#FFEEC8"/>
</g>
</g>
<defs>
<clipPath id="clip0_401_2">
<rect width="100" height="100" fill="white"/>
</clipPath>
</defs>
</svg>